<?xml version="1.0" encoding="utf-8"?>
<!-- Generator: Adobe Illustrator 27.7.0, SVG Export Plug-In . SVG Version: 6.00 Build 0)  -->
<svg version="1.1" id="Layer_1" xmlns="http://www.w3.org/2000/svg" xmlns:xlink="http://www.w3.org/1999/xlink" x="0px" y="0px"
	 viewBox="0 0 36 36" style="enable-background:new 0 0 36 36;" xml:space="preserve">
<style type="text/css">
	.st0{fill:none;}
	.st1{fill:#D9232D;}
	.st2{fill:#FFFFFF;}
</style>
<rect class="st0" width="36" height="36"/>
<circle id="Ellipse_1" class="st1" cx="18" cy="18" r="18"/>
<g id="Group_5" transform="translate(-167.809 -158.148)">
	<g>
		<path id="Path_11_00000169523428967864026790000015803019335711210429_" class="st2" d="M196.5,176.2c0.1-5.8-4.5-10.5-10.2-10.6
			c-0.1,0-0.2,0-0.3,0h-7.4c-0.1,0.6-0.1,1.2,0,1.8v17.6c0,0.7,0,1.8,0,1.8h7.4c5.7,0.1,10.4-4.4,10.5-10.1
			C196.5,176.5,196.5,176.4,196.5,176.2z M180.7,185.6v-19h5.2c5.4,0,8.3,4.6,8.3,9.6c0,5-3,9.4-8.3,9.4L180.7,185.6z"/>
		<path class="st2" d="M177.1,164.1l9.2,0c6.5,0.1,11.8,5.6,11.6,12.1c0,0.1,0,0.3,0,0.4c-0.1,3.1-1.3,6.1-3.6,8.2
			c-2.2,2.1-5.1,3.3-8.1,3.3c-0.1,0-0.2,0-0.2,0h-8.8l0-1.4c0,0,0-1.1,0-1.9 M182.1,184.2l3.8,0c4.7,0,6.9-4.1,6.9-7.9
			c0-3.9-2.2-8.1-6.9-8.1h-3.8V184.2z"/>
	</g>
</g>
</svg>

